<svg width="1592" height="1552" viewBox="0 0 1592 1552" fill="none" xmlns="http://www.w3.org/2000/svg">
<path d="M1346 461.5H1248H1150" stroke="black" stroke-width="20"/>
<path d="M440.5 1092C496.748 677.134 771.392 508.489 1151.5 460Z" fill="#CB3C33"/>
<path d="M440.5 1092C496.748 677.134 771.392 508.489 1151.5 460" stroke="black" stroke-width="20"/>
<path d="M1151.5 460C1095.25 874.866 820.608 1043.51 440.5 1092Z" fill="#CB3C33"/>
<path d="M1151.5 460C1095.25 874.866 820.608 1043.51 440.5 1092" stroke="black" stroke-width="20"/>
<path d="M1151.5 460C1030.24 803.507 765.157 982.65 440.5 1092Z" fill="#CB3C33"/>
<path d="M1151.5 460C1030.24 803.507 765.157 982.65 440.5 1092" stroke="black" stroke-width="20"/>
<path d="M440.5 1131.5C462.315 1131.5 480 1113.82 480 1092C480 1070.18 462.315 1052.5 440.5 1052.5C418.685 1052.5 401 1070.18 401 1092C401 1113.82 418.685 1131.5 440.5 1131.5Z" fill="black"/>
<path d="M1151.5 499.5C1173.32 499.5 1191 481.815 1191 460C1191 438.185 1173.32 420.5 1151.5 420.5C1129.68 420.5 1112 438.185 1112 460C1112 481.815 1129.68 499.5 1151.5 499.5Z" fill="black"/>
<path d="M440.5 1092C561.764 748.493 826.843 569.35 1151.5 460Z" fill="#CB3C33"/>
<path d="M440.5 1092C561.764 748.493 826.843 569.35 1151.5 460" stroke="black" stroke-width="20"/>
<path d="M440.5 1092L1151.5 460Z" fill="black"/>
<path d="M440.5 1092L1151.5 460" stroke="black" stroke-width="20"/>
<path d="M440.5 1230.25V1092H302.25" stroke="black" stroke-width="20"/>
<path d="M1151.5 460V321.75" stroke="black" stroke-width="20"/>
<circle cx="441" cy="1092" r="57" fill="#9558B2" stroke="black" stroke-width="22"/>
<circle cx="1152" cy="265" r="57" fill="#4063D8" stroke="black" stroke-width="22"/>
<circle cx="1347" cy="460" r="57" fill="#9558B2" stroke="black" stroke-width="22"/>
<circle cx="1152" cy="460" r="57" fill="#389826" stroke="black" stroke-width="22"/>
<circle cx="441" cy="1287" r="57" fill="#4063D8" stroke="black" stroke-width="22"/>
<circle cx="245" cy="1092" r="57" fill="#389826" stroke="black" stroke-width="22"/>
</svg>
