<svg width="1592" height="1552" viewBox="0 0 1592 1552" fill="none" xmlns="http://www.w3.org/2000/svg">
<path d="M1346 461.5H1248H1150" stroke="white" stroke-width="20"/>
<path d="M440.5 1092C496.748 677.134 771.392 508.489 1151.5 460Z" fill="#CB3C33"/>
<path d="M440.5 1092C496.748 677.134 771.392 508.489 1151.5 460" stroke="white" stroke-width="20"/>
<path d="M1151.5 460C1095.25 874.866 820.608 1043.51 440.5 1092Z" fill="#CB3C33"/>
<path d="M1151.5 460C1095.25 874.866 820.608 1043.51 440.5 1092" stroke="white" stroke-width="20"/>
<path d="M1151.5 460C1030.24 803.507 765.157 982.65 440.5 1092Z" fill="#CB3C33"/>
<path d="M1151.5 460C1030.24 803.507 765.157 982.65 440.5 1092" stroke="white" stroke-width="20"/>
<path d="M440.5 1054.5C461.211 1054.5 478 1071.29 478 1092C478 1112.71 461.211 1129.5 440.5 1129.5C419.789 1129.5 403 1112.71 403 1092C403 1071.29 419.789 1054.5 440.5 1054.5Z" fill="black" stroke="white" stroke-width="4"/>
<path d="M1151.5 422.5C1172.21 422.5 1189 439.289 1189 460C1189 480.711 1172.21 497.5 1151.5 497.5C1130.79 497.5 1114 480.711 1114 460C1114 439.289 1130.79 422.5 1151.5 422.5Z" fill="black" stroke="white" stroke-width="4"/>
<path d="M440.5 1092C561.764 748.493 826.843 569.35 1151.5 460Z" fill="#CB3C33"/>
<path d="M440.5 1092C561.764 748.493 826.843 569.35 1151.5 460" stroke="white" stroke-width="20"/>
<path d="M440.5 1092L1151.5 460Z" fill="black"/>
<path d="M440.5 1092L1151.5 460" stroke="white" stroke-width="20"/>
<path d="M440.5 1230.25V1092H302.25" stroke="white" stroke-width="20"/>
<path d="M1151.5 460V321.75" stroke="white" stroke-width="20"/>
<circle cx="441" cy="1092" r="57" fill="#9558B2" stroke="white" stroke-width="22"/>
<circle cx="1152" cy="265" r="57" fill="#4063D8" stroke="white" stroke-width="22"/>
<circle cx="1347" cy="460" r="57" fill="#9558B2" stroke="white" stroke-width="22"/>
<circle cx="1152" cy="460" r="57" fill="#389826" stroke="white" stroke-width="22"/>
<circle cx="441" cy="1287" r="57" fill="#4063D8" stroke="white" stroke-width="22"/>
<circle cx="245" cy="1092" r="57" fill="#389826" stroke="white" stroke-width="22"/>
</svg>
