<svg width="2744" height="1262" viewBox="0 0 2744 1262" fill="none" xmlns="http://www.w3.org/2000/svg">
<path d="M1122.15 662.625H1162.97L1204.57 881.57L1322.15 662.625H1366.68L1211.99 947H1178.01L1122.15 662.625ZM1101.84 662.625H1142.46L1116.48 854.227L1100.27 947H1052.42L1101.84 662.625ZM1344.22 662.625H1385.23L1335.82 947H1287.97L1304.96 850.125L1344.22 662.625ZM1516 894.852L1543.54 735.672H1589.63L1552.91 947H1509.55L1516 894.852ZM1528.89 853.25L1544.12 852.664C1542.56 865.424 1539.7 877.794 1535.53 889.773C1531.36 901.622 1525.7 912.234 1518.54 921.609C1511.38 930.984 1502.46 938.341 1491.78 943.68C1481.1 949.018 1468.54 951.492 1454.09 951.102C1442.5 950.711 1432.73 948.432 1424.79 944.266C1416.98 939.969 1410.79 934.174 1406.23 926.883C1401.68 919.591 1398.62 911.258 1397.05 901.883C1395.62 892.508 1395.43 882.612 1396.47 872.195L1419.32 735.672H1465.22L1442.17 872.781C1441.78 877.859 1441.78 882.742 1442.17 887.43C1442.56 892.117 1443.67 896.349 1445.49 900.125C1447.32 903.901 1449.98 906.961 1453.5 909.305C1457.15 911.518 1461.9 912.755 1467.76 913.016C1480.26 913.406 1490.67 910.997 1499.01 905.789C1507.47 900.451 1514.11 893.159 1518.93 883.914C1523.88 874.669 1527.2 864.448 1528.89 853.25ZM1721.96 888.602C1723 881.44 1721.44 875.906 1717.27 872C1713.11 867.964 1707.9 864.904 1701.65 862.82C1695.4 860.737 1689.67 859.044 1684.46 857.742C1676.52 855.789 1668.58 853.315 1660.63 850.32C1652.82 847.195 1645.66 843.289 1639.15 838.602C1632.64 833.914 1627.49 828.185 1623.72 821.414C1619.94 814.513 1618.25 806.31 1618.64 796.805C1619.16 785.867 1622.03 776.297 1627.23 768.094C1632.44 759.891 1639.15 753.055 1647.35 747.586C1655.68 742.117 1664.8 738.081 1674.7 735.477C1684.59 732.872 1694.42 731.635 1704.19 731.766C1717.86 732.026 1730.42 734.695 1741.88 739.773C1753.47 744.852 1762.72 752.339 1769.62 762.234C1776.65 772.13 1780.1 784.37 1779.97 798.953L1734.27 798.758C1734.53 792.247 1733.35 786.648 1730.75 781.961C1728.28 777.143 1724.63 773.432 1719.81 770.828C1714.99 768.224 1709.2 766.857 1702.43 766.727C1696.57 766.596 1690.78 767.573 1685.05 769.656C1679.45 771.74 1674.63 774.865 1670.59 779.031C1666.56 783.198 1664.08 788.471 1663.17 794.852C1662.39 799.799 1663.11 803.901 1665.32 807.156C1667.53 810.281 1670.59 812.82 1674.5 814.773C1678.41 816.727 1682.51 818.354 1686.8 819.656C1691.23 820.828 1695.2 821.805 1698.72 822.586C1709.79 825.581 1720.66 829.422 1731.34 834.109C1742.01 838.667 1750.74 845.112 1757.51 853.445C1764.28 861.648 1767.34 872.456 1766.69 885.867C1766.3 897.326 1763.3 907.221 1757.7 915.555C1752.1 923.758 1744.94 930.529 1736.22 935.867C1727.49 941.076 1717.92 944.917 1707.51 947.391C1697.22 949.865 1687.07 951.036 1677.04 950.906C1663.24 950.646 1650.22 947.781 1637.98 942.312C1625.87 936.844 1616.1 928.966 1608.68 918.68C1601.39 908.263 1597.74 895.568 1597.74 880.594L1642.08 880.789C1642.08 888.341 1643.58 894.721 1646.57 899.93C1649.7 905.138 1653.99 909.109 1659.46 911.844C1665.06 914.448 1671.57 915.815 1678.99 915.945C1685.11 915.945 1691.23 915.099 1697.35 913.406C1703.6 911.583 1708.94 908.654 1713.37 904.617C1717.92 900.581 1720.79 895.242 1721.96 888.602ZM1882.22 913.602C1889.9 913.732 1896.93 912.299 1903.31 909.305C1909.69 906.31 1914.97 902.013 1919.13 896.414C1923.43 890.815 1926.42 884.37 1928.12 877.078L1971.67 876.883C1969.98 891.987 1964.64 905.138 1955.66 916.336C1946.8 927.534 1935.73 936.193 1922.45 942.312C1909.3 948.302 1895.37 951.167 1880.66 950.906C1865.68 950.646 1852.86 947.586 1842.18 941.727C1831.63 935.867 1823.1 927.99 1816.59 918.094C1810.08 908.198 1805.53 897 1802.92 884.5C1800.45 871.87 1799.86 858.784 1801.16 845.242L1801.95 838.211C1803.51 823.758 1806.96 810.086 1812.3 797.195C1817.77 784.305 1824.99 772.911 1833.98 763.016C1843.09 752.99 1853.83 745.177 1866.2 739.578C1878.57 733.979 1892.51 731.375 1908 731.766C1923.62 732.026 1937.1 735.607 1948.43 742.508C1959.76 749.409 1968.42 758.849 1974.41 770.828C1980.4 782.677 1983.33 796.219 1983.2 811.453L1940.03 811.258C1940.03 803.966 1938.79 797.195 1936.32 790.945C1933.98 784.565 1930.2 779.422 1924.99 775.516C1919.91 771.479 1913.27 769.331 1905.07 769.07C1895.43 768.81 1887.17 770.698 1880.27 774.734C1873.49 778.771 1867.83 784.24 1863.27 791.141C1858.85 798.042 1855.33 805.659 1852.73 813.992C1850.25 822.195 1848.56 830.333 1847.65 838.406L1846.87 845.242C1846.22 852.143 1845.96 859.565 1846.09 867.508C1846.35 875.32 1847.58 882.677 1849.8 889.578C1852.01 896.479 1855.66 902.143 1860.73 906.57C1865.94 910.997 1873.1 913.341 1882.22 913.602ZM2091.5 647L2039.35 947H1993.45L2045.41 647H2091.5ZM2180.08 950.906C2165.62 950.646 2152.8 947.846 2141.6 942.508C2130.53 937.039 2121.35 929.682 2114.06 920.438C2106.77 911.062 2101.5 900.32 2098.24 888.211C2094.99 875.971 2093.88 862.951 2094.92 849.148L2095.7 841.141C2097.14 826.948 2100.59 813.276 2106.05 800.125C2111.52 786.844 2118.82 775.06 2127.93 764.773C2137.17 754.357 2148.05 746.154 2160.55 740.164C2173.05 734.174 2186.98 731.375 2202.34 731.766C2217.06 732.026 2229.49 735.086 2239.65 740.945C2249.8 746.805 2257.88 754.617 2263.87 764.383C2269.86 774.018 2273.83 784.956 2275.78 797.195C2277.86 809.435 2278.19 822.13 2276.76 835.281L2274.02 855.398H2115.43L2120.9 821.609L2232.81 821.805L2233.59 817.703C2234.77 809.5 2234.31 801.753 2232.23 794.461C2230.27 787.169 2226.63 781.18 2221.29 776.492C2215.95 771.805 2208.79 769.331 2199.8 769.07C2190.04 768.81 2181.64 770.828 2174.61 775.125C2167.71 779.422 2161.98 785.216 2157.42 792.508C2152.86 799.799 2149.28 807.742 2146.68 816.336C2144.21 824.799 2142.45 833.068 2141.41 841.141L2140.62 848.953C2139.84 856.635 2140.04 864.253 2141.21 871.805C2142.38 879.357 2144.66 886.258 2148.05 892.508C2151.43 898.628 2156.12 903.641 2162.11 907.547C2168.1 911.323 2175.52 913.341 2184.38 913.602C2195.44 913.862 2205.47 911.583 2214.45 906.766C2223.57 901.818 2231.84 895.438 2239.26 887.625L2261.91 911.648C2255.92 920.633 2248.5 928.055 2239.65 933.914C2230.92 939.773 2221.42 944.135 2211.13 947C2200.98 949.734 2190.62 951.036 2180.08 950.906ZM2295.02 924.344C2294.89 916.661 2297.43 910.281 2302.64 905.203C2307.85 900.125 2314.23 897.521 2321.78 897.391C2329.33 897.26 2335.65 899.604 2340.73 904.422C2345.93 909.109 2348.54 915.229 2348.54 922.781C2348.67 930.464 2346.13 936.844 2340.92 941.922C2335.71 946.87 2329.27 949.409 2321.59 949.539C2314.29 949.669 2308.04 947.391 2302.84 942.703C2297.63 938.016 2295.02 931.896 2295.02 924.344ZM2431.65 735.672H2477.94L2438.88 965.359C2437.18 978.901 2433.34 990.75 2427.35 1000.91C2421.49 1011.19 2413.48 1019.14 2403.33 1024.73C2393.3 1030.46 2381.19 1033.2 2367 1032.94C2362.44 1032.81 2357.95 1032.42 2353.52 1031.77C2348.97 1031.11 2344.47 1030.27 2340.05 1029.23L2344.15 992.508C2347.01 993.029 2349.88 993.549 2352.74 994.07C2355.48 994.591 2358.28 994.852 2361.14 994.852C2367.26 994.852 2372.47 993.615 2376.77 991.141C2381.06 988.667 2384.51 985.216 2387.12 980.789C2389.72 976.362 2391.48 971.219 2392.39 965.359L2431.65 735.672ZM2437.51 680.984C2437.38 673.432 2439.85 667.247 2444.93 662.43C2450.01 657.612 2456.19 655.138 2463.48 655.008C2470.78 654.878 2476.96 657.091 2482.04 661.648C2487.25 666.076 2489.85 672 2489.85 679.422C2489.85 686.974 2487.31 693.094 2482.23 697.781C2477.16 702.469 2470.97 704.878 2463.68 705.008C2456.52 705.138 2450.33 703.055 2445.12 698.758C2440.05 694.331 2437.51 688.406 2437.51 680.984ZM2587.22 647L2535.07 947H2489.17L2541.12 647H2587.22Z" fill="black"/>
<path d="M1239 316.5H1141H1043" stroke="black" stroke-width="20"/>
<path d="M333.5 947C389.748 532.134 664.392 363.489 1044.5 315Z" fill="#CB3C33"/>
<path d="M333.5 947C389.748 532.134 664.392 363.489 1044.5 315" stroke="black" stroke-width="20"/>
<path d="M1044.5 315C988.252 729.866 713.608 898.511 333.5 947Z" fill="#CB3C33"/>
<path d="M1044.5 315C988.252 729.866 713.608 898.511 333.5 947" stroke="black" stroke-width="20"/>
<path d="M1044.5 315C923.236 658.507 658.157 837.65 333.5 947Z" fill="#CB3C33"/>
<path d="M1044.5 315C923.236 658.507 658.157 837.65 333.5 947" stroke="black" stroke-width="20"/>
<path d="M333.5 986.5C355.315 986.5 373 968.815 373 947C373 925.185 355.315 907.5 333.5 907.5C311.685 907.5 294 925.185 294 947C294 968.815 311.685 986.5 333.5 986.5Z" fill="black"/>
<path d="M1044.5 354.5C1066.32 354.5 1084 336.815 1084 315C1084 293.185 1066.32 275.5 1044.5 275.5C1022.68 275.5 1005 293.185 1005 315C1005 336.815 1022.68 354.5 1044.5 354.5Z" fill="black"/>
<path d="M333.5 947C454.764 603.493 719.843 424.35 1044.5 315Z" fill="#CB3C33"/>
<path d="M333.5 947C454.764 603.493 719.843 424.35 1044.5 315" stroke="black" stroke-width="20"/>
<path d="M333.5 947L1044.5 315Z" fill="black"/>
<path d="M333.5 947L1044.5 315" stroke="black" stroke-width="20"/>
<path d="M333.5 1085.25V947H195.25" stroke="black" stroke-width="20"/>
<path d="M1044.5 315V176.75" stroke="black" stroke-width="20"/>
<circle cx="334" cy="947" r="57" fill="#9558B2" stroke="black" stroke-width="22"/>
<circle cx="1045" cy="120" r="57" fill="#4063D8" stroke="black" stroke-width="22"/>
<circle cx="1240" cy="315" r="57" fill="#9558B2" stroke="black" stroke-width="22"/>
<circle cx="1045" cy="315" r="57" fill="#389826" stroke="black" stroke-width="22"/>
<circle cx="334" cy="1142" r="57" fill="#4063D8" stroke="black" stroke-width="22"/>
<circle cx="138" cy="947" r="57" fill="#389826" stroke="black" stroke-width="22"/>
</svg>
